<svg version="1.2" xmlns="http://www.w3.org/2000/svg" viewBox="0 0 465 369" width="465" height="369">
	<defs>
		<clipPath clipPathUnits="userSpaceOnUse" id="cp1">
			<path d="m402.99 0c-7.72 7.85-12.49 18.62-12.49 30.5 0 24.02 19.48 43.5 43.5 43.5 11.88 0 22.65-4.77 30.5-12.49v298.49c0 4.97-4.03 9-9 9h-446c-4.97 0-9-4.03-9-9v-351c0-4.97 4.03-9 9-9z"/>
		</clipPath>
		<linearGradient id="g1" x2="1" gradientUnits="userSpaceOnUse" gradientTransform="matrix(-926.934,-330.124,285.734,-802.295,684.349,881.972)">
			<stop offset="0" stop-color="#ffffff"/>
			<stop offset="1" stop-color="#500d0d"/>
		</linearGradient>
	</defs>
	<style>
		.s0 { fill: url(#g1) } 
	</style>
	<g id="Clip-Path" clip-path="url(#cp1)">
		<path class="s0" d="m402.99 0l0.71 0.7 1.67-1.7h-2.38zm61.51 61.51h1v-2.38l-1.7 1.67zm-61.51-61.51l-0.72-0.7c-7.89 8.03-12.77 19.04-12.77 31.2h1 1c0-11.61 4.65-22.13 12.2-29.8zm-12.49 30.5h-1c0 24.58 19.92 44.5 44.5 44.5v-1-1c-23.47 0-42.5-19.03-42.5-42.5zm43.5 43.5v1c12.16 0 23.17-4.88 31.2-12.78l-0.7-0.71-0.7-0.71c-7.67 7.54-18.19 12.2-29.8 12.2zm30.5-12.49h-1v298.49h1 1v-298.49zm0 298.49h-1c0 4.42-3.58 8-8 8v1 1c5.53 0 10-4.48 10-10zm-9 9v-1h-446v1 1h446zm-446 0v-1c-4.42 0-8-3.58-8-8h-1-1c0 5.52 4.48 10 10 10zm-9-9h1v-351h-1-1v351zm0-351h1c0-4.42 3.58-8 8-8v-1-1c-5.52 0-10 4.48-10 10zm9-9v1h393.49v-1-1h-393.49z"/>
	</g>
</svg>